<svg xmlns="http://www.w3.org/2000/svg" fill="none" viewBox="0 0 283 64"><path fill="black" d="m141.04 16 14.204 11.412-11.412 17.136-14.204-11.412 11.412-17.136ZM28.492 16l14.204 11.412-11.412 17.136L17.08 33.136 28.492 16Zm9.808 0 11.412 17.136L38.3 44.548 26.888 33.136 38.3 16Zm53.956 20.23L80.844 64l-11.412-17.136 11.412-17.136ZM60.432 16l11.412 17.136-11.412 17.136L48.608 33.136 60.432 16Zm55.956 28.23L104.976 64l-11.412-17.136 11.412-17.136ZM92.02 16l11.412 17.136-11.412 17.136L80.608 33.136 92.02 16Zm68.24 0 14.204 11.412-11.412 17.136-14.204-11.412 11.412-17.136ZM123.676 16l14.204 11.412-11.412 17.136-14.204-11.412 11.412-17.136ZM141.04 16l14.204 11.412-11.412 17.136-14.204-11.412 11.412-17.136Z"/></svg>
